<?xml version="1.0" standalone="no"?><!DOCTYPE svg PUBLIC "-//W3C//DTD SVG 1.1//EN" "http://www.w3.org/Graphics/SVG/1.1/DTD/svg11.dtd"><svg t="1741494149448" class="icon" viewBox="0 0 1024 1024" version="1.1" xmlns="http://www.w3.org/2000/svg" p-id="11294" xmlns:xlink="http://www.w3.org/1999/xlink" width="32" height="32"><path d="M307.2 187.733333V102.4a102.4 102.4 0 0 1 102.4-102.4h204.8a102.4 102.4 0 0 1 102.4 102.4v85.333333h273.066667a34.133333 34.133333 0 0 1 0 68.266667H34.133333a34.133333 34.133333 0 1 1 0-68.266667h273.066667z m341.333333 0V102.4a34.133333 34.133333 0 0 0-34.133333-34.133333h-204.8a34.133333 34.133333 0 0 0-34.133333 34.133333v85.333333h273.066666z m170.666667 187.733334a34.133333 34.133333 0 0 1 68.266667 0v477.866666a170.666667 170.666667 0 0 1-170.666667 170.666667H307.2a170.666667 170.666667 0 0 1-170.666667-170.666667V375.466667a34.133333 34.133333 0 0 1 68.266667 0v477.866666a102.4 102.4 0 0 0 102.4 102.4h409.6a102.4 102.4 0 0 0 102.4-102.4V375.466667z m-460.8 68.266666a34.133333 34.133333 0 0 1 68.266667 0v341.333334a34.133333 34.133333 0 0 1-68.266667 0V443.733333z m238.933333 0a34.133333 34.133333 0 0 1 68.266667 0v341.333334a34.133333 34.133333 0 0 1-68.266667 0V443.733333z" fill="#B5B8C9" p-id="11295"></path></svg>