<?xml version="1.0" standalone="no"?><!DOCTYPE svg PUBLIC "-//W3C//DTD SVG 1.1//EN" "http://www.w3.org/Graphics/SVG/1.1/DTD/svg11.dtd"><svg t="1740292846016" class="icon" viewBox="0 0 1024 1024" version="1.1" xmlns="http://www.w3.org/2000/svg" p-id="4827" xmlns:xlink="http://www.w3.org/1999/xlink" width="64" height="64"><path d="M0.008409 0m284.428643 0l455.085829 0q284.428643 0 284.428642 284.428643l0 455.085828q0 284.428643-284.428642 284.428643l-455.085829 0q-284.428643 0-284.428643-284.428643l0-455.085828q0-284.428643 284.428643-284.428643Z" fill="#CCE1FF" p-id="4828"></path><path d="M298.658484 298.650075m-99.550025 0a99.550025 99.550025 0 1 0 199.10005 0 99.550025 99.550025 0 1 0-199.10005 0Z" fill="#EC532B" p-id="4829"></path><path d="M636.303726 416.687962C745.239896 415.265819 1023.979966 739.514471 1023.979966 739.514471a285.566357 285.566357 0 0 1-16.639075 95.852453 285.281929 285.281929 0 0 1-57.056386 95.169824 288.26843 288.26843 0 0 1-41.327482 37.459252 289.832787 289.832787 0 0 1-35.35448 22.384534 285.452586 285.452586 0 0 1-106.177213 32.197323 288.353758 288.353758 0 0 1-27.874007 1.3937L224.707037 825.411922S527.282227 418.110105 636.275283 416.687962z" fill="#004BBC" p-id="4830"></path><path d="M739.522881 1023.943114H284.437052a285.452586 285.452586 0 0 1-95.82401-16.639075 284.058886 284.058886 0 0 1-148.130437-121.564802A283.888228 283.888228 0 0 1 0.008409 739.514471v-67.438031s91.927337-121.081273 176.032887-126.997389C260.146846 539.162935 739.522881 1023.943114 739.522881 1023.943114z" fill="#5D9CF9" p-id="4831"></path></svg>