<?xml version="1.0" standalone="no"?><!DOCTYPE svg PUBLIC "-//W3C//DTD SVG 1.1//EN" "http://www.w3.org/Graphics/SVG/1.1/DTD/svg11.dtd"><svg t="1740292830505" class="icon" viewBox="0 0 1024 1024" version="1.1" xmlns="http://www.w3.org/2000/svg" p-id="3606" xmlns:xlink="http://www.w3.org/1999/xlink" width="64" height="64"><path d="M0 0m512 0l0 0q512 0 512 512l0 0q0 512-512 512l0 0q-512 0-512-512l0 0q0-512 512-512Z" fill="#FFFFFF" p-id="3607"></path><path d="M640 396.8m-51.2 0a51.2 51.2 0 1 0 102.4 0 51.2 51.2 0 1 0-102.4 0Z" fill="#82D2F7" p-id="3608"></path><path d="M479.6416 472.8832l88.448 176.896A64 64 0 0 1 510.848 742.4H333.952a64 64 0 0 1-57.2416-92.6208l88.448-176.896a64 64 0 0 1 114.4832 0z" fill="#046EA7" p-id="3609"></path><path d="M674.3424 555.0976l65.8688 131.7248A38.4 38.4 0 0 1 705.8688 742.4H574.1312a38.4 38.4 0 0 1-34.3424-55.5776l65.8688-131.7248a38.4 38.4 0 0 1 68.6848 0z" fill="#FCCF0A" p-id="3610"></path></svg>