<?xml version="1.0" standalone="no"?><!DOCTYPE svg PUBLIC "-//W3C//DTD SVG 1.1//EN" "http://www.w3.org/Graphics/SVG/1.1/DTD/svg11.dtd"><svg t="1740217010521" class="icon" viewBox="0 0 1592 1024" version="1.1" xmlns="http://www.w3.org/2000/svg" p-id="26581" xmlns:xlink="http://www.w3.org/1999/xlink" width="99.5" height="64"><path d="M795.989333 0C356.124444 0 0 441.685333 0 496.298667s356.124444 496.184889 795.989333 496.184889c439.864889 0 795.989333-448.625778 795.989334-496.184889 0-47.672889-356.124444-496.298667-795.989334-496.298667z m0 903.168c-225.393778 0-408.917333-181.589333-408.917333-405.959111C387.072 273.066667 569.571556 91.363556 795.989333 91.363556c226.417778 0 409.031111 181.589333 409.031111 405.845333 0 224.369778-183.523556 405.959111-409.031111 405.959111z m0-639.203556c-25.941333 0-50.858667 3.982222-74.752 11.946667a98.076444 98.076444 0 0 1-72.817777 164.750222 100.465778 100.465778 0 0 1-70.883556-29.809777 235.292444 235.292444 0 0 0 218.453333 322.56c129.706667 0 235.52-105.130667 235.52-234.154667a235.52 235.52 0 0 0-235.52-235.292445z" fill="#ffffff" p-id="26582"></path></svg>